<svg width="839" height="1248" viewBox="0 0 839 1248" fill="none" xmlns="http://www.w3.org/2000/svg">
<path d="M0 20C0 8.95433 8.9543 0 20 0H819C830.046 0 839 8.95431 839 20V1150C839 1204.12 795.124 1248 741 1248H20C8.95432 1248 0 1239.05 0 1228V20Z" fill="#F0F1E8"/>
<path d="M64 125C64 113.954 72.9543 105 84 105H757C768.046 105 777 113.954 777 125V525C777 558.137 750.137 585 717 585H84C72.9543 585 64 576.046 64 565V125Z" fill="#A9B1BC"/>
<rect y="40" width="839" height="10" fill="#D9D9D9"/>
<rect x="55" width="40" height="10" transform="rotate(90 55 0)" fill="#D9D9D9"/>
<rect x="794" width="40" height="10" transform="rotate(90 794 0)" fill="#D9D9D9"/>
<rect x="704.414" y="1236.41" width="95.3373" height="11.364" rx="5.68198" transform="rotate(-135 704.414 1236.41)" fill="#D9D9D9"/>
<rect x="728.006" y="1212.82" width="95.3373" height="11.364" rx="5.68198" transform="rotate(-135 728.006 1212.82)" fill="#D9D9D9"/>
<rect x="751.597" y="1189.22" width="95.3373" height="11.364" rx="5.68198" transform="rotate(-135 751.597 1189.22)" fill="#D9D9D9"/>
<rect x="775.189" y="1165.63" width="95.3373" height="11.364" rx="5.68198" transform="rotate(-135 775.189 1165.63)" fill="#D9D9D9"/>
<rect x="798.781" y="1142.04" width="95.3373" height="11.364" rx="5.68198" transform="rotate(-135 798.781 1142.04)" fill="#D9D9D9"/>
<rect x="822.373" y="1118.45" width="95.3373" height="11.364" rx="5.68198" transform="rotate(-135 822.373 1118.45)" fill="#D9D9D9"/>
<rect x="134" y="760" width="62" height="177" rx="8" fill="#111B1F"/>
<rect x="76" y="879" width="62" height="177" rx="8" transform="rotate(-90 76 879)" fill="#111B1F"/>
<circle cx="123.5" cy="289.5" r="6.5" fill="#FF0101"/>
<path d="M96.0508 316.848H99.4688V316.164H100.152V314.797H99.4688V314.113H96.0508V316.848ZM94.6836 322.316V312.746H100.152V313.43H100.836V314.113H101.52V316.848H100.836V318.215H101.52V320.949H100.836V321.633H100.152V322.316H94.6836ZM96.0508 320.949H99.4688V320.266H100.152V318.898H99.4688V318.215H96.0508V320.949Z" fill="white"/>
<path d="M104.938 320.949H107.672V320.266H108.355V318.898H107.672V318.215H104.938V318.898H104.254V320.266H104.938V320.949ZM104.254 322.316V321.633H103.57V320.949H102.887V318.215H103.57V317.531H104.254V316.848H107.672V317.531H108.355V316.164H107.672V315.48H104.254V314.113H108.355V314.797H109.039V315.48H109.723V322.316H108.355V321.633H107.672V322.316H104.254Z" fill="white"/>
<path d="M115.875 320.949H116.559V322.316H115.191V321.633H114.508V320.949H113.824V316.164H112.457V314.797H113.824V312.746H115.191V314.797H116.559V316.164H115.191V320.266H115.875V320.949Z" fill="white"/>
<path d="M124.078 320.949H124.762V322.316H123.395V321.633H122.711V320.949H122.027V316.164H120.66V314.797H122.027V312.746H123.395V314.797H124.762V316.164H123.395V320.266H124.078V320.949Z" fill="white"/>
<path d="M128.863 316.848V317.531H132.965V316.848H132.281V316.164H129.547V316.848H128.863ZM134.332 320.266V320.949H133.648V321.633H132.965V322.316H128.863V321.633H128.18V320.949H127.496V316.164H128.18V315.48H128.863V314.797H132.965V315.48H133.648V316.164H134.332V318.215H133.648V318.898H128.863V320.266H129.547V320.949H132.281V320.266H134.332Z" fill="white"/>
<path d="M137.066 318.215V322.316H135.699V314.797H137.066V316.164H137.75V315.48H138.434V314.797H141.168V315.48H141.852V316.164H142.535V317.531H141.168V316.848H140.484V316.164H139.117V316.848H138.434V317.531H137.75V318.215H137.066Z" fill="white"/>
<path d="M145.27 322.316V320.949H148.688V320.266H149.371V318.215H148.688V318.898H148.004V319.582H145.27V318.898H144.586V318.215H143.902V314.113H145.27V317.531H145.953V318.215H147.32V317.531H148.004V316.848H148.688V315.48H149.371V314.113H150.738V320.949H150.055V321.633H149.371V322.316H145.27Z" fill="white"/>
<path d="M329.048 1096.02L329.854 1095.31L331.275 1096.92L329.664 1098.34L328.953 1097.54L328.148 1098.25L327.437 1097.44L324.215 1100.29L324.926 1101.09L324.12 1101.8L325.541 1103.41L326.347 1102.7L327.058 1103.51L331.085 1099.95L331.796 1100.76L332.601 1100.05L333.312 1100.86L334.118 1100.14L336.96 1103.37L336.155 1104.08L336.865 1104.88L336.06 1105.59L336.771 1106.4L331.937 1110.66L331.227 1109.86L330.421 1110.57L329.711 1109.76L328.905 1110.47L327.484 1108.86L329.095 1107.44L329.805 1108.25L330.611 1107.54L331.322 1108.34L334.544 1105.5L333.833 1104.69L334.639 1103.98L333.217 1102.37L332.412 1103.08L331.701 1102.28L327.673 1105.83L326.963 1105.02L326.157 1105.73L325.446 1104.93L324.641 1105.64L321.798 1102.42L322.604 1101.71L321.893 1100.9L322.699 1100.19L321.988 1099.39L326.821 1095.12L327.532 1095.93L328.337 1095.22L329.048 1096.02Z" fill="#6F6F95"/>
<path d="M338.099 1085.17L339.52 1086.78L333.076 1092.47L335.918 1095.69L340.752 1091.43L342.173 1093.04L337.34 1097.3L340.182 1100.52L346.627 1094.84L348.048 1096.45L339.993 1103.56L330.043 1092.28L338.099 1085.17Z" fill="#6F6F95"/>
<path d="M349.659 1095.03L339.71 1083.75L341.321 1082.33L349.849 1092L356.293 1086.31L357.715 1087.92L349.659 1095.03Z" fill="#6F6F95"/>
<path d="M357.432 1068.12L358.853 1069.73L352.409 1075.41L355.251 1078.63L360.084 1074.37L361.506 1075.98L356.673 1080.25L359.515 1083.47L365.96 1077.78L367.381 1079.39L359.326 1086.5L349.376 1075.22L357.432 1068.12Z" fill="#6F6F95"/>
<path d="M369.987 1074.23L373.209 1071.39L372.499 1070.58L373.304 1069.87L372.594 1069.06L374.205 1067.64L375.626 1069.25L374.821 1069.96L375.531 1070.77L374.726 1071.48L375.436 1072.29L370.603 1076.55L369.892 1075.75L369.087 1076.46L368.376 1075.65L367.571 1076.36L360.464 1068.31L361.269 1067.59L360.559 1066.79L361.364 1066.08L360.654 1065.27L365.487 1061.01L366.198 1061.81L367.003 1061.1L367.714 1061.91L368.519 1061.2L369.941 1062.81L368.33 1064.23L367.619 1063.43L366.813 1064.14L366.103 1063.33L362.881 1066.17L363.591 1066.98L362.786 1067.69L368.471 1074.13L369.277 1073.42L369.987 1074.23Z" fill="#6F6F95"/>
<path d="M373.353 1056.93L370.13 1059.78L368.709 1058.17L376.764 1051.06L378.186 1052.67L374.964 1055.51L383.492 1065.18L381.881 1066.6L373.353 1056.93Z" fill="#6F6F95"/>
<path d="M461.048 1091.42L461.854 1090.71L463.275 1092.32L461.664 1093.74L460.953 1092.94L460.148 1093.65L459.437 1092.84L456.215 1095.69L456.926 1096.49L456.12 1097.2L457.541 1098.81L458.347 1098.1L459.058 1098.91L463.085 1095.35L463.796 1096.16L464.601 1095.45L465.312 1096.25L466.118 1095.54L468.96 1098.77L468.155 1099.48L468.865 1100.28L468.06 1100.99L468.771 1101.8L463.937 1106.06L463.227 1105.26L462.421 1105.97L461.711 1105.16L460.905 1105.87L459.484 1104.26L461.095 1102.84L461.805 1103.65L462.611 1102.93L463.322 1103.74L466.544 1100.9L465.833 1100.09L466.639 1099.38L465.217 1097.77L464.412 1098.48L463.701 1097.68L459.673 1101.23L458.963 1100.42L458.157 1101.13L457.446 1100.33L456.641 1101.04L453.798 1097.82L454.604 1097.11L453.893 1096.3L454.699 1095.59L453.988 1094.78L458.821 1090.52L459.532 1091.33L460.337 1090.62L461.048 1091.42Z" fill="#6F6F95"/>
<path d="M466.687 1086.45L463.465 1089.29L462.043 1087.68L470.099 1080.57L471.52 1082.18L468.298 1085.02L476.826 1094.69L475.215 1096.11L466.687 1086.45Z" fill="#6F6F95"/>
<path d="M479.006 1084.17L483.839 1079.91L481.707 1077.49L480.902 1078.2L480.191 1077.4L479.386 1078.11L478.675 1077.3L477.064 1078.72L477.775 1079.53L476.969 1080.24L477.68 1081.05L476.874 1081.76L479.006 1084.17ZM483.27 1089.01L481.659 1090.43L474.552 1082.37L475.358 1081.66L474.647 1080.86L475.453 1080.15L474.742 1079.34L475.548 1078.63L474.837 1077.82L475.643 1077.11L474.932 1076.31L476.543 1074.89L477.254 1075.69L478.059 1074.98L478.77 1075.79L479.575 1075.08L480.286 1075.88L481.092 1075.17L481.802 1075.98L482.608 1075.27L489.715 1083.32L488.103 1084.74L485.261 1081.52L480.428 1085.78L483.27 1089.01Z" fill="#6F6F95"/>
<path d="M484.409 1070.81L487.251 1074.03L491.279 1070.48L490.568 1069.67L491.374 1068.96L489.952 1067.35L489.147 1068.06L488.436 1067.26L484.409 1070.81ZM489.478 1074.93L488.673 1075.64L492.937 1080.48L491.326 1081.9L481.376 1070.62L487.82 1064.94L488.531 1065.74L489.337 1065.03L490.047 1065.84L490.853 1065.13L493.696 1068.35L492.89 1069.06L493.601 1069.86L492.795 1070.58L493.506 1071.38L491.895 1072.8L492.605 1073.61L493.411 1072.9L494.122 1073.7L494.927 1072.99L495.638 1073.8L496.443 1073.09L497.154 1073.89L497.96 1073.18L499.381 1074.79L497.77 1076.21L497.059 1075.41L496.254 1076.12L495.543 1075.31L494.737 1076.02L494.027 1075.22L493.221 1075.93L492.511 1075.12L491.705 1075.83L490.994 1075.03L490.189 1075.74L489.478 1074.93Z" fill="#6F6F95"/>
<path d="M495.686 1060.86L492.464 1063.7L491.043 1062.09L499.098 1054.99L500.519 1056.6L497.297 1059.44L505.825 1069.11L504.214 1070.53L495.686 1060.86Z" fill="#6F6F95"/>
<path d="M640.281 904.257L647.238 898.12L646.011 896.728L647.402 895.501L644.947 892.718L643.556 893.945L642.328 892.554L635.371 898.692L640.281 904.257ZM647.319 917.843L630.134 898.364L641.265 888.544L642.492 889.935L643.883 888.708L645.111 890.099L646.502 888.871L651.413 894.437L650.021 895.664L652.476 898.447L653.868 897.22L658.778 902.785L657.386 904.013L658.614 905.404L657.222 906.632L658.45 908.023L647.319 917.843ZM647.647 912.605L654.604 906.468L653.376 905.076L654.767 903.849L652.312 901.066L650.921 902.294L649.693 900.902L642.737 907.04L647.647 912.605Z" fill="#6F6F95"/>
<path d="M753.737 815.04L762.085 807.675L758.402 803.501L757.011 804.728L755.783 803.337L754.392 804.564L753.164 803.173L750.382 805.628L751.609 807.019L750.218 808.247L751.445 809.638L750.054 810.866L753.737 815.04ZM761.102 823.388L758.319 825.843L746.044 811.929L747.435 810.702L746.207 809.311L747.599 808.083L746.371 806.692L747.763 805.464L746.535 804.073L747.927 802.845L746.699 801.454L749.482 798.999L750.709 800.39L752.101 799.163L753.328 800.554L754.72 799.326L755.947 800.718L757.339 799.49L758.566 800.882L759.957 799.654L772.233 813.568L769.45 816.023L764.54 810.458L756.192 817.823L761.102 823.388Z" fill="#6F6F95"/>
<circle cx="603" cy="851" r="43" fill="#A15679"/>
<circle cx="709" cy="758" r="43" fill="#A15679"/>
<rect x="291.605" y="1086.18" width="95" height="22" rx="10" transform="rotate(-41.4232 291.605 1086.18)" fill="#656567"/>
<rect x="420" y="1085.85" width="95" height="22" rx="10" transform="rotate(-41.4232 420 1085.85)" fill="#656567"/>
</svg>
