<svg width="146" height="146" viewBox="0 0 146 146" fill="none" xmlns="http://www.w3.org/2000/svg">
<path d="M146 0H0V146H146V0Z" fill="black"/>
<path fill-rule="evenodd" clip-rule="evenodd" d="M140 6H6V140H140V6ZM146 0V146H0V0H146Z" fill="white"/>
<path d="M24.7891 102.633V126.07H18.9297V85.0547H24.7891V93.8438H27.7188V96.7734H30.6484V99.7031H33.5781V102.633H36.5078V105.562H39.4375V108.492H42.3672V85.0547H48.2266V126.07H42.3672V117.281H39.4375V114.352H36.5078V111.422H33.5781V108.492H30.6484V105.562H27.7188V102.633H24.7891Z" fill="white"/>
<path d="M83.3828 85.0547V90.9141H59.9453V102.633H77.5234V108.492H59.9453V120.211H83.3828V126.07H54.0859V85.0547H83.3828Z" fill="white"/>
<path d="M109.75 90.9141H98.0312V93.8438H95.1016V117.281H98.0312V120.211H109.75V117.281H112.68V93.8438H109.75V90.9141ZM95.1016 87.9844V85.0547H112.68V87.9844H115.609V90.9141H118.539V120.211H115.609V123.141H112.68V126.07H95.1016V123.141H92.1719V120.211H89.2422V90.9141H92.1719V87.9844H95.1016Z" fill="white"/>
</svg>
